<?xml version="1.0" encoding="UTF-8" standalone="no"?>
<!-- Created with Inkscape (http://www.inkscape.org/) -->

<svg
   width="297mm"
   height="210mm"
   viewBox="0 0 297 210"
   version="1.1"
   id="svg1"
   xml:space="preserve"
   inkscape:version="1.3.2 (1:1.3.2+202311252150+091e20ef0f)"
   sodipodi:docname="background.svg"
   inkscape:export-filename="background.png"
   inkscape:export-xdpi="300"
   inkscape:export-ydpi="300"
   xmlns:inkscape="http://www.inkscape.org/namespaces/inkscape"
   xmlns:sodipodi="http://sodipodi.sourceforge.net/DTD/sodipodi-0.dtd"
   xmlns="http://www.w3.org/2000/svg"
   xmlns:svg="http://www.w3.org/2000/svg"><sodipodi:namedview
     id="namedview1"
     pagecolor="#ffffff"
     bordercolor="#000000"
     borderopacity="0.25"
     inkscape:showpageshadow="2"
     inkscape:pageopacity="0.0"
     inkscape:pagecheckerboard="0"
     inkscape:deskcolor="#d1d1d1"
     inkscape:document-units="mm"
     inkscape:zoom="0.5253601"
     inkscape:cx="497.75383"
     inkscape:cy="527.2574"
     inkscape:window-width="1370"
     inkscape:window-height="836"
     inkscape:window-x="0"
     inkscape:window-y="0"
     inkscape:window-maximized="1"
     inkscape:current-layer="layer1"
     inkscape:export-bgcolor="#ffffffff" /><defs
     id="defs1"><inkscape:path-effect
       effect="powerstroke"
       id="path-effect421"
       is_visible="true"
       lpeversion="1.3"
       scale_width="1"
       interpolator_type="CentripetalCatmullRom"
       interpolator_beta="0.2"
       start_linecap_type="round"
       end_linecap_type="round"
       offset_points="0.2,0.85989499 | 0.5,0.85989499 | 0.8,0.85989499"
       linejoin_type="round"
       miter_limit="4"
       not_jump="false"
       sort_points="true"
       message="&lt;b&gt;Ctrl + click&lt;/b&gt; on existing node and move it" /><inkscape:path-effect
       effect="powerstroke"
       id="path-effect420"
       is_visible="true"
       lpeversion="1.3"
       scale_width="1"
       interpolator_type="CentripetalCatmullRom"
       interpolator_beta="0.2"
       start_linecap_type="round"
       end_linecap_type="round"
       offset_points="0.2,0.85989499 | 0.5,0.85989499 | 0.8,0.85989499"
       linejoin_type="round"
       miter_limit="4"
       not_jump="false"
       sort_points="true"
       message="&lt;b&gt;Ctrl + click&lt;/b&gt; on existing node and move it" /><inkscape:path-effect
       effect="powerstroke"
       id="path-effect419"
       is_visible="true"
       lpeversion="1.3"
       scale_width="1"
       interpolator_type="CentripetalCatmullRom"
       interpolator_beta="0.2"
       start_linecap_type="round"
       end_linecap_type="round"
       offset_points="0.2,0.85989499 | 0.5,0.85989499 | 0.8,0.85989499"
       linejoin_type="round"
       miter_limit="4"
       not_jump="false"
       sort_points="true"
       message="&lt;b&gt;Ctrl + click&lt;/b&gt; on existing node and move it" /><inkscape:path-effect
       effect="powerstroke"
       id="path-effect418"
       is_visible="true"
       lpeversion="1.3"
       scale_width="1"
       interpolator_type="CentripetalCatmullRom"
       interpolator_beta="0.2"
       start_linecap_type="round"
       end_linecap_type="round"
       offset_points="0.2,0.85989499 | 0.5,0.85989499 | 0.8,0.85989499"
       linejoin_type="round"
       miter_limit="4"
       not_jump="false"
       sort_points="true"
       message="&lt;b&gt;Ctrl + click&lt;/b&gt; on existing node and move it" /><inkscape:path-effect
       effect="powerstroke"
       id="path-effect417"
       is_visible="true"
       lpeversion="1.3"
       scale_width="1"
       interpolator_type="CentripetalCatmullRom"
       interpolator_beta="0.2"
       start_linecap_type="round"
       end_linecap_type="round"
       offset_points="0.2,0.85989499 | 0.5,0.85989499 | 0.8,0.85989499"
       linejoin_type="round"
       miter_limit="4"
       not_jump="false"
       sort_points="true"
       message="&lt;b&gt;Ctrl + click&lt;/b&gt; on existing node and move it" /><clipPath
       clipPathUnits="userSpaceOnUse"
       id="clipPath498"><rect
         style="opacity:1;fill:#1aa25f;fill-opacity:1;fill-rule:evenodd;stroke:none;stroke-width:0.0661458;stroke-linecap:round;stroke-dasharray:none;stroke-opacity:1"
         id="rect498"
         width="56.384117"
         height="16.816275"
         x="78.500893"
         y="89.865746" /></clipPath><clipPath
       clipPathUnits="userSpaceOnUse"
       id="clipPath9"><g
         id="g13"><path
           id="path9-2"
           style="fill:#808080;fill-opacity:1;fill-rule:evenodd;stroke:none;stroke-width:0.1;stroke-linecap:round"
           d="m 115.59627,-17.290604 c 0,8.3754994 -3.21637,13.8346474 -9.96462,13.8346474 -5.927867,0 -9.812117,-5.0842545 -9.812117,-13.8346474 0,-9.510619 4.393037,-13.923679 9.812117,-13.923681 5.41908,0 9.96462,4.139541 9.96462,13.923681 z m 4.59192,27.816424 c -1.70777,-2.0406651 -3.43527,-3.5843158 -3.43527,-3.5843158 0,0 -1.24537,0.3233553 -2.11345,0.6307482 -2.49897,0.884899 -4.96131,1.3631889 -8.81237,1.3709862 -4.18112,0.00849 -6.055274,-0.2551563 -9.356467,-1.3160084 C 91.306702,5.9677794 86.448939,2.1227247 83.61392,-2.9715919 79.562864,-10.251041 78.856725,-20.60871 82.169801,-28.72013 c 1.617482,-3.960091 4.133778,-7.613738 7.451859,-10.174189 2.087632,-1.610955 5.588625,-3.303063 8.544767,-4.129869 1.782133,-0.498447 4.427553,-0.822164 7.592723,-0.822164 4.36373,0 7.88759,0.506941 12.17659,2.619985 5.43451,2.677399 9.28423,7.00576 11.61601,12.924948 1.16354,2.953642 1.636,5.543663 1.80327,9.695057 0.2714,6.735888 -1.28026,12.0719412 -4.48649,17.0282856 l -1.21509,1.87834319 1.57033,1.61467011 c 4.42542,4.5503888 4.81593,5.0326792 5.24753,6.4811275 0.76963,2.5828756 0.22657,5.0513956 -2.63079,6.2268756 -3.88462,1.598079 -6.73475,-0.610848 -9.65232,-4.09712 z" /><g
           id="g12"><path
             style="fill:#808080;fill-opacity:1;stroke:none;stroke-width:0.2;stroke-dasharray:none"
             d="m 155.56677,8.5600533 c -10.14322,-2.234099 -16.70583,-9.09365867 -18.75047,-19.5819823 -0.56559,-2.901278 -0.62843,-9.228123 -0.12494,-12.024086 1.38007,-7.663678 5.13354,-13.684572 10.85483,-17.205484 4.2451,-2.612459 8.59202,-3.725124 14.62846,-3.725124 10.80313,0 18.08206,4.766038 21.16912,12.990041 0.71571,1.906666 1.51837,5.201724 1.51837,6.46451 v 0.683708 h -7.10064 c -7.71689,0 -7.98971,0.0865 -8.67186,-1.980407 -0.19085,-0.578264 -0.89488,-1.882477 -1.42616,-2.585417 -2.46335,-3.259259 -7.92467,-3.58543 -11.28516,-1.019503 -3.04838,2.327615 -4.71857,7.662766 -4.34334,13.578624 0.36727,5.790381 2.38796,9.6742583 5.73728,11.312927 2.21661,1.0844829 4.89643,1.1409169 6.84562,0.3888079 2.45523,-0.9473699 3.40565,-2.8381097 4.29919,-5.1764577 1.15142,-3.0132512 0.62432,-2.8682992 9.14682,-2.8015482 l 7.01543,0.05495 -0.0296,1.695883 c -0.10331,5.926699 -5.00066,13.2469396 -10.92762,16.6205403 -1.0869,0.61866 -3.30895,1.422149 -4.61146,1.814953 -2.10452,0.63467 -4.17345,0.986961 -6.9984,1.041574 -2.92604,0.05657 -5.10524,-0.141177 -6.94551,-0.546506 z"
             id="path10-7"
             sodipodi:nodetypes="ssssssscssssssssscsssss" /><path
             style="fill:#808080;fill-opacity:1;fill-rule:evenodd;stroke:#ff0000;stroke-width:0.02;stroke-linecap:round"
             d="m 63.903456,-30.200091 c -3.600363,-1.853176 -12.315146,-4.511776 -15.346271,-0.678958 -1.185806,1.499436 -0.816462,3.40725 0.87141,4.800168 0.817213,0.674407 2.966279,1.474052 5.670767,2.432863 11.941302,4.233503 19.475833,5.660972 19.475833,17.6994953 0,10.4996693 -11.148558,15.254017 -20.030319,14.949333 -8.881763,-0.304681 -16.289254,-3.357155 -18.960367,-8.26501967 -1.890329,-3.47326273 0.0867,-7.09353043 2.215154,-7.50786343 1.078806,-0.210005 2.613281,-1.789731 8.62577,2.5510647 6.01249,4.34079573 11.923173,2.238761 11.923173,2.238761 0,0 3.610845,-1.120351 3.241333,-4.1684116 -0.50541,-4.1690653 -4.435753,-3.1950751 -16.509139,-8.2355133 -12.864548,-5.370736 -10.976792,-18.961724 -8.092335,-22.296123 3.538427,-4.090379 8.147958,-7.135952 17.271146,-7.135952 9.914014,0 17.381635,4.676851 18.494623,7.180209 1.112986,2.503361 0.904154,5.682259 -0.906423,6.727596 -2.2485,1.298172 -3.487491,1.523164 -7.944355,-0.291649 z"
             id="path11-0"
             sodipodi:nodetypes="csssssssscssssssc" /><path
             id="path12-9"
             style="fill:#808080;fill-opacity:1;fill-rule:evenodd;stroke:none;stroke-width:0.1;stroke-linecap:round;stroke-dasharray:none"
             d="m 221.46813,-25.292201 h -14.29741 v -15.210512 c 0,-1.067973 -1.19914,-2.312161 -2.73069,-2.312161 h -10.43697 c -1.20942,0 -2.46538,1.325963 -2.46538,2.076878 V 1.7567086 c 0,3.6162347 3.39794,7.2719757 7.7738,7.2719757 4.83556,0 7.94853,-4.3611797 7.94853,-7.3699097 V -12.120522 h 14.36112 V 1.4825806 c 0,2.345608 2.08046,7.5446277 7.66808,7.5446277 6.12027,0 7.93095,-5.4880117 7.93095,-6.8124327 V -36.459177 l 3.87337,-4.272063 c 0.63636,-0.636359 0.30467,-2.083634 -0.51278,-2.083634 h -16.41407 c -0.81708,0 -2.63919,0.923507 -2.63919,2.639194 l -0.0594,14.883479 z"
             sodipodi:nodetypes="ccsssscsccccscccccccc" /></g></g></clipPath><clipPath
       clipPathUnits="userSpaceOnUse"
       id="clipPath25"><rect
         style="fill:#64b5a8;fill-opacity:1;fill-rule:evenodd;stroke:none;stroke-width:0.19;stroke-linecap:round;stroke-linejoin:round"
         id="rect26"
         width="65.656876"
         height="153.24101"
         x="499.11734"
         y="-156.47755" /></clipPath><inkscape:path-effect
       effect="mirror_symmetry"
       start_point="159.53279,195.72452"
       end_point="153.12083,195.72452"
       center_point="156.32681,195.72452"
       id="path-effect195"
       is_visible="true"
       lpeversion="1.2"
       lpesatellites=""
       mode="free"
       discard_orig_path="false"
       fuse_paths="false"
       oposite_fuse="false"
       split_items="false"
       split_open="false"
       link_styles="false" /><inkscape:path-effect
       effect="mirror_symmetry"
       start_point="153.12083,195.72452"
       end_point="159.29665,195.72452"
       center_point="156.20874,195.72452"
       id="path-effect192"
       is_visible="true"
       lpeversion="1.2"
       lpesatellites=""
       mode="free"
       discard_orig_path="false"
       fuse_paths="false"
       oposite_fuse="false"
       split_items="false"
       split_open="false"
       link_styles="false" /><inkscape:path-effect
       effect="mirror_symmetry"
       start_point="101.00454,204.87382"
       end_point="101.00454,212.27556"
       center_point="101.00454,208.57469"
       id="path-effect188"
       is_visible="true"
       lpeversion="1.2"
       lpesatellites=""
       mode="free"
       discard_orig_path="false"
       fuse_paths="false"
       oposite_fuse="false"
       split_items="false"
       split_open="false"
       link_styles="false" /><inkscape:path-effect
       effect="mirror_symmetry"
       start_point="112.74997,208.89662"
       end_point="112.74069,211.08183"
       center_point="112.74533,209.98923"
       id="path-effect187"
       is_visible="true"
       lpeversion="1.2"
       lpesatellites=""
       mode="free"
       discard_orig_path="false"
       fuse_paths="false"
       oposite_fuse="false"
       split_items="false"
       split_open="false"
       link_styles="false" /><inkscape:path-effect
       effect="offset"
       id="path-effect166"
       is_visible="true"
       lpeversion="1.2"
       linejoin_type="miter"
       unit="mm"
       offset="-1.4"
       miter_limit="4"
       attempt_force_join="false"
       update_on_knot_move="true" /><inkscape:path-effect
       effect="powerstroke"
       id="path-effect77"
       is_visible="true"
       lpeversion="1.3"
       scale_width="2.244389"
       interpolator_type="CentripetalCatmullRom"
       interpolator_beta="0.2"
       start_linecap_type="butt"
       end_linecap_type="round"
       offset_points="0.2,0.25 | 1,0.25 | 1.8,0.25"
       linejoin_type="round"
       miter_limit="4"
       not_jump="false"
       sort_points="true"
       message="&lt;b&gt;Ctrl + click&lt;/b&gt; on existing node and move it" /><inkscape:path-effect
       effect="powerstroke"
       id="path-effect58"
       is_visible="true"
       lpeversion="1.3"
       scale_width="1"
       interpolator_type="CentripetalCatmullRom"
       interpolator_beta="0.2"
       start_linecap_type="zerowidth"
       end_linecap_type="zerowidth"
       offset_points="0.21356546,0.26306313 | 0.99671415,0.34318737 | 1.7281771,0.21605712"
       linejoin_type="round"
       miter_limit="4"
       not_jump="false"
       sort_points="true"
       message="&lt;b&gt;Ctrl + click&lt;/b&gt; on existing node and move it" /><inkscape:path-effect
       effect="powerstroke"
       id="path-effect57"
       is_visible="true"
       lpeversion="1.3"
       scale_width="1"
       interpolator_type="CentripetalCatmullRom"
       interpolator_beta="0.2"
       start_linecap_type="zerowidth"
       end_linecap_type="zerowidth"
       offset_points="0.24425366,0.17440021 | 1.0001105,0.39523678 | 1.7406531,0.21952518"
       linejoin_type="round"
       miter_limit="4"
       not_jump="false"
       sort_points="true"
       message="&lt;b&gt;Ctrl + click&lt;/b&gt; on existing node and move it" /><inkscape:path-effect
       effect="powerstroke"
       id="path-effect56"
       is_visible="true"
       lpeversion="1.3"
       scale_width="1"
       interpolator_type="CentripetalCatmullRom"
       interpolator_beta="0.2"
       start_linecap_type="zerowidth"
       end_linecap_type="zerowidth"
       offset_points="0.25534064,0.21388266 | 1,0.36764851 | 1.6197845,0.27979588"
       linejoin_type="round"
       miter_limit="4"
       not_jump="false"
       sort_points="true"
       message="&lt;b&gt;Ctrl + click&lt;/b&gt; on existing node and move it" /><inkscape:path-effect
       effect="powerstroke"
       id="path-effect55"
       is_visible="true"
       lpeversion="1.3"
       scale_width="1"
       interpolator_type="CentripetalCatmullRom"
       interpolator_beta="0.2"
       start_linecap_type="zerowidth"
       end_linecap_type="zerowidth"
       offset_points="0.34320145,0.29653144 | 1.0044783,0.44360333 | 1.6333773,0.27823447"
       linejoin_type="round"
       miter_limit="4"
       not_jump="false"
       sort_points="true"
       message="&lt;b&gt;Ctrl + click&lt;/b&gt; on existing node and move it" /><inkscape:path-effect
       effect="powerstroke"
       id="path-effect54"
       is_visible="true"
       lpeversion="1.3"
       scale_width="1"
       interpolator_type="CentripetalCatmullRom"
       interpolator_beta="0.2"
       start_linecap_type="zerowidth"
       end_linecap_type="zerowidth"
       offset_points="0.54458624,0.32395703 | 1,0.34 | 1.5522111,0.23143372"
       linejoin_type="round"
       miter_limit="4"
       not_jump="false"
       sort_points="true"
       message="&lt;b&gt;Ctrl + click&lt;/b&gt; on existing node and move it" /><inkscape:path-effect
       effect="fill_between_many"
       method="bsplinespiro"
       autoreverse="false"
       close="false"
       join="false"
       linkedpaths="#path77,0,1"
       id="path-effect78"
       is_visible="true"
       lpeversion="0" /><filter
       style="color-interpolation-filters:sRGB"
       id="filter14-2"
       inkscape:label="In and Out"
       x="-0.22206914"
       y="-0.1956542"
       width="1.4441383"
       height="1.3913084"><feGaussianBlur
         stdDeviation="0.29999999999999999"
         id="feGaussianBlur14-0"
         in="SourceAlpha"
         result="result1" /><feOffset
         dx="0"
         dy="0"
         id="feOffset14"
         preserveAlpha="false"
         in="result1"
         result="result2" /><feComposite
         id="feComposite14"
         in="result2"
         operator="over"
         in2="SourceGraphic" /></filter><clipPath
       clipPathUnits="userSpaceOnUse"
       id="clipPath48"><rect
         style="fill:#000000;fill-rule:evenodd;stroke:none;stroke-width:7.47014;stroke-linecap:round;stroke-linejoin:round"
         id="rect48"
         width="1066.9696"
         height="571.90839"
         x="-426.71689"
         y="-159.79742" /></clipPath><clipPath
       clipPathUnits="userSpaceOnUse"
       id="clipPath2"><rect
         style="fill:none;fill-rule:evenodd;stroke:#64b5a8;stroke-width:3.73507;stroke-linecap:round;stroke-linejoin:round;stroke-dasharray:none;stroke-opacity:1"
         id="rect3"
         width="1064.312"
         height="748.72534"
         x="-426.83768"
         y="-335.29199" /></clipPath></defs><g
     inkscape:label="Layer 1"
     inkscape:groupmode="layer"
     id="layer1"><path
       id="rect2"
       style="fill-rule:evenodd;stroke-width:0.132292;stroke-linejoin:round;fill:#ff5555"
       d="M 0,0 H 297 V 210 H 0 Z" /><rect
       style="fill:#ffffff;fill-rule:evenodd;stroke:#ff5555;stroke-width:1;stroke-linecap:round;stroke-linejoin:round;stroke-dasharray:none;stroke-opacity:1"
       id="rect1"
       width="284.9512"
       height="200.45831"
       x="6.0243988"
       y="4.7708435" /><text
       xml:space="preserve"
       style="font-size:4.46724px;line-height:1;font-family:Arial;-inkscape-font-specification:Arial;text-align:center;word-spacing:0px;text-anchor:middle;fill:#000000;fill-rule:evenodd;stroke:none;stroke-width:1.53491;stroke-linecap:round;stroke-linejoin:round"
       x="151.80368"
       y="189.87361"
       id="text2"><tspan
         sodipodi:role="line"
         id="tspan2"
         style="fill:#000000;stroke:none;stroke-width:1.53491"
         x="151.80368"
         y="189.87361">Title</tspan><tspan
         sodipodi:role="line"
         style="fill:#000000;stroke:none;stroke-width:1.53491"
         x="151.80368"
         y="194.34085"
         id="tspan4">Name Surname</tspan><tspan
         sodipodi:role="line"
         style="fill:#000000;stroke:none;stroke-width:1.53491"
         x="151.80368"
         y="198.80809"
         id="tspan3">Affiliation</tspan></text><g
       id="g37"
       transform="matrix(0.76745691,0,0,0.76745691,78.428553,48.74466)"><path
         style="fill:#000000;fill-rule:evenodd;stroke:none;stroke-width:2;stroke-linecap:round;stroke-linejoin:round"
         id="path6"
         d="m 73.621282,159.61811 c 1.856558,1.35018 3.1261,3.35811 4.212033,5.34132 0.391626,0.71522 0.736946,1.45483 1.105422,2.18224 0.839911,1.90627 0.976743,2.13536 1.675183,4.0164 0.192467,0.51835 0.363272,1.04449 0.5449,1.56672 0,0 0.577148,-0.15982 0.577148,-0.15982 v 0 c -0.709666,-1.87932 -1.437545,-3.75269 -2.31042,-5.56424 -0.362484,-0.73024 -0.705987,-1.47023 -1.087454,-2.19075 -1.054094,-1.99099 -2.250696,-3.96953 -3.977208,-5.45361 z" /><path
         style="fill:#000000;fill-rule:evenodd;stroke:none;stroke-width:2;stroke-linecap:round;stroke-linejoin:round"
         id="path7"
         d="m 73.338815,163.45579 c 0.440291,-0.85848 0.938267,-1.68347 1.565312,-2.42082 0.228366,-0.26854 0.478154,-0.51809 0.717234,-0.77714 0.265217,-0.25627 0.525824,-0.51741 0.795655,-0.76883 0.265304,-0.2472 0.529592,-0.4962 0.809485,-0.72675 1.051418,-0.86609 2.223442,-1.55627 3.410731,-2.21465 0.495241,-0.23873 0.653374,-0.33688 1.149561,-0.50247 0.133874,-0.0442 0.429222,-0.25072 0.408057,-0.11141 -0.0786,0.51837 -0.721934,-0.0174 -0.233965,0.18296 0.03119,0.0128 0.04757,0.0478 0.07137,0.0718 -0.01723,0.31667 -0.276265,0.55695 -0.487601,0.76743 -0.04049,0.0425 -0.08101,0.085 -0.121506,0.12749 0,0 0.763416,-0.12277 0.763416,-0.12277 v 0 c 0.03997,-0.042 0.07994,-0.0839 0.119896,-0.12592 0.190997,-0.19761 0.443489,-0.4405 0.477453,-0.73148 0.0059,-0.0501 -0.0063,-0.10081 -0.0094,-0.15122 -0.03182,-0.0384 -0.05186,-0.091 -0.09544,-0.11521 -0.326446,-0.18144 -1.214327,0.17344 -1.224967,0.17602 -0.531635,0.12879 -1.025979,0.37212 -1.507456,0.62483 -1.172711,0.66754 -2.336037,1.3621 -3.37871,2.22534 -0.279085,0.23106 -0.541863,0.48124 -0.806552,0.72866 -0.270991,0.25331 -0.533511,0.51553 -0.800268,0.7733 -0.243389,0.26168 -0.496953,0.51424 -0.73017,0.78503 -0.64841,0.75287 -1.163414,1.59497 -1.664017,2.44883 z" /><path
         style="fill:#000000;fill-rule:evenodd;stroke:none;stroke-width:2;stroke-linecap:round;stroke-linejoin:round"
         id="path8"
         d="m 76.334838,165.89697 c 0.625722,-0.50538 1.208898,-1.06177 1.836947,-1.56423 0.201278,-0.16103 0.400881,-0.32544 0.615842,-0.4677 0.251651,-0.1665 0.520957,-0.30469 0.781436,-0.45703 1.503508,-0.72626 3.118564,-1.17929 4.758024,-1.46723 0.09277,-0.007 0.422455,-0.0609 0.55879,-10e-4 0.06507,0.0283 -0.03572,0.10792 -0.127173,0.19769 -0.236747,0.23229 -0.255473,0.24128 -0.520601,0.47273 -0.265579,0.23796 -0.548485,0.4552 -0.827297,0.67713 0,0 0.748504,-0.11019 0.748504,-0.11019 v 0 c 0.275384,-0.22315 0.553516,-0.4432 0.818468,-0.67885 0.158114,-0.13741 0.617323,-0.48459 0.671371,-0.7041 0.07508,-0.30492 -0.616374,-0.12886 -0.654789,-0.14314 -0.976396,0.1758 -1.919865,0.41348 -2.878752,0.68025 -0.618512,0.17194 -1.616464,0.48386 -2.204468,0.71432 -0.347092,0.13607 -0.681746,0.30194 -1.022619,0.45291 -0.265515,0.15593 -0.540165,0.29719 -0.796584,0.46764 -0.21515,0.14306 -0.413871,0.30952 -0.615532,0.47101 -0.642573,0.51461 -1.244655,1.07948 -1.907161,1.56959 z" /><path
         style="fill:#000000;fill-rule:evenodd;stroke:none;stroke-width:2;stroke-linecap:round;stroke-linejoin:round"
         id="path9"
         d="m 83.977322,167.43898 c -0.02346,-0.0767 -0.06299,-0.15024 -0.07046,-0.2301 -0.04965,-0.53225 0.18444,-1.04406 0.424065,-1.50179 0.09592,-0.18322 0.193831,-0.36663 0.312714,-0.53586 0.113395,-0.16142 0.254362,-0.30158 0.381542,-0.45237 0.152098,-0.0945 0.295456,-0.2048 0.456254,-0.2836 0.0622,-0.0305 -0.213819,0.0977 -0.15656,0.13678 0.167383,0.11418 0.401093,0.077 0.587217,0.15702 0.405235,0.17431 0.806682,0.49904 1.103946,0.81756 0.170502,0.1827 0.310149,0.39191 0.465225,0.58787 0.140294,0.23976 0.296421,0.47093 0.420887,0.71927 0.460578,0.91896 0.813842,2.06227 0.965587,3.08187 0.02336,0.15689 0.03132,0.31569 0.04699,0.47352 -0.0082,0.40405 0.01676,0.2238 -0.05266,0.54337 0,0 0.74973,-0.16632 0.74973,-0.16632 v 0 c 0.04471,-0.33286 0.03237,-0.14723 0.01819,-0.55781 -0.02222,-0.15815 -0.03784,-0.31736 -0.06669,-0.47444 -0.14008,-0.76272 -0.366224,-1.51934 -0.63938,-2.24424 -0.108626,-0.28829 -0.220303,-0.57626 -0.354827,-0.85341 -0.122381,-0.25214 -0.276318,-0.4877 -0.414478,-0.73155 -0.154671,-0.20022 -0.293753,-0.41352 -0.464017,-0.60065 -0.29424,-0.32339 -0.704297,-0.66362 -1.104063,-0.85224 -0.186555,-0.088 -0.384036,-0.19315 -0.59019,-0.18608 -1.05115,0.036 -1.04643,0.11771 -1.685162,0.55309 -0.125393,0.15455 -0.263904,0.29933 -0.37618,0.46364 -0.117521,0.17201 -0.215337,0.35703 -0.310983,0.5421 -0.250033,0.48378 -0.480487,1.00489 -0.4566,1.56242 0.0034,0.0801 0.03599,0.15634 0.05404,0.2345 z" /><path
         style="fill:#000000;fill-rule:evenodd;stroke:none;stroke-width:2;stroke-linecap:round;stroke-linejoin:round"
         id="path10"
         d="m 88.046172,167.09079 c -0.846913,0.24598 -1.797245,0.40289 -2.439101,1.0624 -0.11828,0.12155 -0.203933,0.27103 -0.305902,0.40654 -0.05608,0.16808 -0.136208,0.32998 -0.168227,0.50425 -0.152377,0.82937 0.171946,1.75889 0.550496,2.48611 0.08494,0.16318 0.190451,0.31477 0.285677,0.47216 0.197919,0.24867 0.304908,0.41237 0.543173,0.61257 0.07594,0.0638 0.163565,0.11224 0.245349,0.16836 0,0 0.717002,-0.24957 0.717002,-0.24957 v 0 c -0.08281,-0.0509 -0.171362,-0.0935 -0.248417,-0.15277 -0.24539,-0.18873 -0.354157,-0.34683 -0.558403,-0.58788 -0.09747,-0.15355 -0.20607,-0.30059 -0.292429,-0.46066 -0.388259,-0.71967 -0.696956,-1.60929 -0.524812,-2.43533 0.03483,-0.16713 0.116575,-0.32092 0.174862,-0.48137 0.311149,-0.3917 0.279891,-0.41765 0.708306,-0.69301 0.14094,-0.0906 0.35509,-0.0946 0.443171,-0.2371 0.05516,-0.0892 -0.250149,0.11092 -0.313537,0.0273 -7.71e-4,-8.3e-4 0.41513,-0.10916 0.465651,-0.1227 z" /><path
         style="fill:#000000;fill-rule:evenodd;stroke:none;stroke-width:2;stroke-linecap:round;stroke-linejoin:round"
         id="path11"
         d="m 89.918064,155.12048 c 0.763334,2.38866 1.31428,4.84106 1.637286,7.32839 0.112308,0.8648 0.178079,1.73502 0.267116,2.60252 0.181002,2.43136 0.302618,4.87324 0.229345,7.31201 -0.0169,0.5625 -0.0576,1.1332 -0.09389,1.69547 0,0 0.690018,-0.16232 0.690018,-0.16232 v 0 c 0.0113,-0.43356 0.03612,-1.29426 0.03448,-1.68467 -0.01019,-2.43035 -0.206382,-4.85713 -0.387938,-7.2788 -0.08596,-0.86909 -0.155005,-1.74002 -0.257893,-2.60726 -0.0996,-0.83946 -0.214301,-1.6774 -0.349451,-2.51188 -0.266508,-1.6456 -0.643901,-3.27113 -1.02144,-4.89376 z" /><path
         style="fill:#000000;fill-rule:evenodd;stroke:none;stroke-width:2;stroke-linecap:round;stroke-linejoin:round"
         id="path12"
         d="m 92.563791,165.54167 c 0.77532,-1.8315 1.73915,-3.57809 2.748677,-5.2893 0.582031,-0.90223 1.157425,-1.89992 2.089164,-2.48727 0,0 -0.758888,0.105 -0.758888,0.105 v 0 c -0.881037,0.62665 -1.431214,1.59991 -1.984383,2.50323 -1.000553,1.74465 -1.970446,3.50989 -2.846267,5.32077 z" /><path
         style="fill:#000000;fill-rule:evenodd;stroke:none;stroke-width:2;stroke-linecap:round;stroke-linejoin:round"
         id="path13"
         d="m 93.710409,164.83966 c -0.134493,0.062 -0.466952,0.0522 -0.403484,0.18607 0.08787,0.18529 0.406663,0.0907 0.58378,0.1941 0.262076,0.15293 0.506147,0.34336 0.714788,0.56368 1.122706,1.18553 1.74174,2.76549 2.388437,4.22796 0.714073,1.82811 1.341102,3.69507 1.781624,5.60895 0.0053,0.0249 0.01066,0.0498 0.01588,0.0747 0,0 0.756924,-0.208 0.756924,-0.208 v 0 c -0.0109,-0.0221 -0.02173,-0.0444 -0.03264,-0.0666 -0.165718,-0.45951 -0.307205,-0.92816 -0.463303,-1.39099 -0.472798,-1.40186 -0.959315,-2.79963 -1.508325,-4.17388 -0.542925,-1.27279 -0.821115,-2.05909 -1.530147,-3.22922 -0.225166,-0.3716 -0.471579,-0.73355 -0.757165,-1.061 -0.200619,-0.23002 -0.835895,-0.81618 -1.252458,-0.82796 -0.36164,-0.0102 -0.713075,0.12274 -1.069638,0.18402 z" /><path
         style="fill:#000000;fill-rule:evenodd;stroke:none;stroke-width:2;stroke-linecap:round;stroke-linejoin:round"
         id="path14"
         d="m 101.35108,168.17871 c 1.37383,-0.36916 3.17458,-0.91057 3.87691,-2.27563 0.1298,-0.25226 0.15175,-0.54674 0.22762,-0.82011 -0.092,-0.24762 -0.10717,-0.53969 -0.27599,-0.74286 -0.20236,-0.2435 -0.48946,-0.42152 -0.78531,-0.53429 -0.95635,-0.36451 -2.04667,-0.1786 -2.93903,0.28429 -1.05063,0.54501 -1.19498,1.51955 -1.58302,2.50945 -0.136218,1.74798 -0.273498,2.09759 0.03943,3.85517 0.16588,0.93165 0.47014,2.25002 1.30511,2.89492 0.87512,0.67591 1.64048,0.38188 2.60223,0.2649 2.20514,-0.75937 1.26764,-0.32921 2.8619,-1.17695 0,0 -0.65397,0.0838 -0.65397,0.0838 v 0 c -1.20698,0.64165 -0.66344,0.3642 -1.62522,0.84284 -0.93931,0.13265 -1.7131,0.43666 -2.58838,-0.19841 -0.8634,-0.62647 -1.18255,-1.90273 -1.3545,-2.84786 -0.31688,-1.74165 -0.16322,-2.10836 0.003,-3.83603 0.21196,-0.50453 0.33236,-1.05824 0.6359,-1.51361 0.68776,-1.03176 1.50775,-1.35425 2.64972,-0.93819 0.28345,0.10326 0.55851,0.27009 0.75505,0.49896 0.16275,0.18952 0.18189,0.46534 0.27283,0.69802 -0.0725,0.26369 -0.0915,0.54839 -0.21751,0.79109 -0.71137,1.36967 -2.58426,1.88171 -3.96266,2.24001 z" /><path
         style="fill:#000000;fill-rule:evenodd;stroke:none;stroke-width:2;stroke-linecap:round;stroke-linejoin:round"
         id="path23"
         d="m 113.68642,162.23539 c -0.26297,-0.40639 -0.61772,-0.73298 -0.99368,-1.03209 -0.64692,-0.44735 -1.23483,-0.34484 -2.01746,-0.34316 -0.56508,0.0216 -1.03,0.29476 -1.48844,0.59623 -0.47523,0.333 -0.78813,0.80521 -1.03454,1.32018 -0.20221,0.55679 -0.28345,1.1469 -0.2329,1.73597 0.0569,0.6421 0.32746,1.2265 0.58239,1.80891 0.31109,0.7062 0.76754,1.32975 1.20788,1.95847 0.62806,0.91436 1.32963,1.77603 2.04306,2.62451 0.57732,0.61918 1.07261,1.30382 1.58731,1.97382 0.0588,0.0841 0.11767,0.16816 0.1765,0.25224 0,0 0.76659,-0.047 0.76659,-0.047 v 0 c -0.0599,-0.0852 -0.11983,-0.17044 -0.17974,-0.25567 -0.523,-0.66972 -1.01808,-1.3608 -1.60777,-1.97559 -0.71339,-0.84244 -1.40998,-1.7022 -2.02717,-2.61857 -0.43396,-0.62716 -0.89411,-1.24187 -1.20401,-1.94369 -0.25101,-0.57542 -0.5158,-1.15038 -0.57287,-1.78438 -0.0537,-0.57549 0.0243,-1.1527 0.23037,-1.69438 0.24612,-0.50347 0.55949,-0.96034 1.03221,-1.27841 0.45726,-0.29536 0.92542,-0.54608 1.48564,-0.55279 -0.17509,-0.002 -0.35018,-0.007 -0.52527,-0.005 -0.0762,5.3e-4 0.15277,-2.6e-4 0.22861,0.007 0.28167,0.0291 0.54242,0.13921 0.77879,0.29115 0.374,0.28587 0.72603,0.60271 0.98157,1.00268 z" /><path
         style="fill:#000000;fill-rule:evenodd;stroke:none;stroke-width:2;stroke-linecap:round;stroke-linejoin:round"
         id="path24"
         d="m 113.95491,161.98588 c 0.37724,-0.42715 0.76527,-0.87616 1.24803,-1.18998 0.0971,-0.0631 0.20309,-0.11151 0.30464,-0.16726 0.31594,-0.11619 0.36745,-0.15474 0.70581,-0.19943 0.125,-0.0165 0.49607,0.0188 0.37749,-0.0241 -0.12545,-0.0454 -0.30825,-0.081 -0.39986,0.016 -0.0765,0.081 0.22058,0.0332 0.32893,0.0591 0.10429,0.0249 0.20528,0.062 0.30793,0.093 0.3988,0.15597 0.79556,0.37684 1.07937,0.70609 0.18963,0.22 0.2627,0.38065 0.40246,0.6314 0.32986,0.72679 0.38745,1.52293 0.39498,2.30965 0.0214,0.93689 -0.20592,1.84741 -0.44392,2.74554 -0.23235,0.67763 -0.55249,1.32032 -0.90605,1.94177 -0.34504,0.59679 -0.79063,1.12494 -1.18769,1.68602 -0.32614,0.48734 -0.67099,0.96103 -1.04123,1.41587 -0.27304,0.3418 -0.59375,0.64102 -0.87933,0.97135 -0.039,0.0462 -0.0779,0.0924 -0.1169,0.13864 0,0 0.77685,0.0546 0.77685,0.0546 v 0 c 0.0388,-0.0458 0.0777,-0.0916 0.11648,-0.13739 0.28875,-0.32671 0.60005,-0.63356 0.87259,-0.97472 0.36829,-0.45655 0.7093,-0.93318 1.03458,-1.42118 0.40039,-0.56176 0.84686,-1.09296 1.18985,-1.69378 0.35299,-0.6278 0.67327,-1.27686 0.90054,-1.96189 0.23051,-0.90635 0.45707,-1.82239 0.4403,-2.7652 -4e-5,-0.79995 -0.0613,-1.60625 -0.38935,-2.34777 -0.13125,-0.23972 -0.22676,-0.44004 -0.40159,-0.65361 -0.27936,-0.34127 -0.68033,-0.57541 -1.08121,-0.74223 -0.67598,-0.22091 -0.91717,-0.19672 -1.7515,-0.18471 -0.37951,0.005 -0.74682,0.0969 -1.08993,0.25638 -0.1019,0.0594 -0.2081,0.11191 -0.30569,0.17812 -0.48426,0.32853 -0.87339,0.78335 -1.26657,1.20976 z" /></g><text
       xml:space="preserve"
       style="font-style:normal;font-variant:normal;font-weight:bold;font-stretch:normal;font-size:11.9718px;line-height:1;font-family:Arial;-inkscape-font-specification:'Arial Bold';text-align:center;word-spacing:0px;text-anchor:middle;fill:#ff5555;fill-rule:evenodd;stroke:none;stroke-width:4.11343;stroke-linecap:round;stroke-linejoin:round;fill-opacity:1"
       x="85.559052"
       y="28.684576"
       id="text37"><tspan
         sodipodi:role="line"
         id="tspan37"
         style="font-style:normal;font-variant:normal;font-weight:bold;font-stretch:normal;font-family:Arial;-inkscape-font-specification:'Arial Bold';stroke-width:4.11343;fill:#ff5555;fill-opacity:1"
         x="85.559052"
         y="28.684576">Certificate of {Something}</tspan></text><text
       xml:space="preserve"
       style="font-style:normal;font-variant:normal;font-weight:normal;font-stretch:normal;font-size:6.85979px;line-height:1;font-family:Arial;-inkscape-font-specification:Arial;text-align:center;word-spacing:0px;text-anchor:middle;fill:#000000;fill-rule:evenodd;stroke:none;stroke-width:5.04986;stroke-linecap:round;stroke-linejoin:round"
       x="58.644058"
       y="53.314857"
       id="text38"><tspan
         sodipodi:role="line"
         id="tspan38"
         style="font-style:normal;font-variant:normal;font-weight:normal;font-stretch:normal;font-size:6.85979px;font-family:Arial;-inkscape-font-specification:Arial;stroke-width:5.04986"
         x="58.644058"
         y="53.314857">This certificate is presented to:</tspan></text><text
       xml:space="preserve"
       style="font-style:normal;font-variant:normal;font-weight:normal;font-stretch:normal;font-size:6.85979px;line-height:1;font-family:Arial;-inkscape-font-specification:Arial;text-align:start;word-spacing:0px;text-anchor:start;fill:#000000;fill-rule:evenodd;stroke:none;stroke-width:5.04986;stroke-linecap:round;stroke-linejoin:round"
       x="12.427562"
       y="106.82314"
       id="text41"><tspan
         sodipodi:role="line"
         id="tspan41"
         style="font-style:normal;font-variant:normal;font-weight:normal;font-stretch:normal;font-size:6.85979px;font-family:Arial;-inkscape-font-specification:Arial;text-align:start;text-anchor:start;stroke-width:5.04986"
         x="12.427562"
         y="106.82314">At the {Name of the symposium}</tspan></text><text
       xml:space="preserve"
       style="font-style:normal;font-variant:normal;font-weight:normal;font-stretch:normal;font-size:6.85979px;line-height:1;font-family:Arial;-inkscape-font-specification:Arial;text-align:start;word-spacing:0px;text-anchor:start;fill:#000000;fill-rule:evenodd;stroke:none;stroke-width:5.04986;stroke-linecap:round;stroke-linejoin:round"
       x="11.670573"
       y="114.21211"
       id="text42"><tspan
         sodipodi:role="line"
         id="tspan42"
         style="font-style:normal;font-variant:normal;font-weight:normal;font-stretch:normal;font-size:6.85979px;font-family:Arial;-inkscape-font-specification:Arial;text-align:start;text-anchor:start;stroke-width:5.04986"
         x="11.670573"
         y="114.21211">YYYY/MM/DD-DD</tspan></text><text
       xml:space="preserve"
       style="font-style:normal;font-variant:normal;font-weight:normal;font-stretch:normal;font-size:6.85979px;line-height:1;font-family:Arial;-inkscape-font-specification:Arial;text-align:start;word-spacing:0px;text-anchor:start;fill:#000000;fill-rule:evenodd;stroke:none;stroke-width:5.04986;stroke-linecap:round;stroke-linejoin:round"
       x="12.106009"
       y="78.899712"
       id="text44"><tspan
         sodipodi:role="line"
         id="tspan44"
         style="font-style:normal;font-variant:normal;font-weight:normal;font-stretch:normal;font-size:6.85979px;font-family:Arial;-inkscape-font-specification:Arial;text-align:start;text-anchor:start;stroke-width:5.04986"
         x="12.106009"
         y="78.899712">For <tspan
   style="font-style:normal;font-variant:normal;font-weight:bold;font-stretch:normal;font-family:Arial;-inkscape-font-specification:'Arial Bold'"
   id="tspan1">certificate_motivation</tspan></tspan></text><text
       xml:space="preserve"
       style="font-style:normal;font-variant:normal;font-weight:normal;font-stretch:normal;font-size:6.85979px;line-height:1;font-family:Arial;-inkscape-font-specification:Arial;text-align:start;word-spacing:0px;text-anchor:start;fill:#000000;fill-rule:evenodd;stroke:none;stroke-width:5.04986;stroke-linecap:round;stroke-linejoin:round"
       x="11.670573"
       y="121.62045"
       id="text5"><tspan
         sodipodi:role="line"
         id="tspan5"
         style="font-style:normal;font-variant:normal;font-weight:normal;font-stretch:normal;font-size:6.85979px;font-family:Arial;-inkscape-font-specification:Arial;text-align:start;text-anchor:start;stroke-width:5.04986"
         x="11.670573"
         y="121.62045">Location, Country</tspan></text></g></svg>
